<svg id="svg" xmlns="http://www.w3.org/2000/svg" viewBox="34.5 64.83999633789062 500.5 300.5" height="357.5"><line x1="80.5" y1="217.84" x2="479.5" y2="218.34" fill="none" stroke="#3794ff" stroke-width="2" d="M 80.5 217.84 L 479.5 218.34"></line><circle cx="279" cy="218.34" fill="none" stroke="#3794ff" stroke-width="2" r="103.31021246711283" d="M 175.68978753288718 218.34 a 103.31021246711283 103.31021246711283 0 1 0 206.62042493422567 0a 103.31021246711283 103.31021246711283 0 1 0 -206.62042493422567 0 Z"></circle><line x1="279.5" y1="217.34" x2="165" y2="74.84" fill="none" stroke="#3794ff" stroke-width="2" d="M 279.5 217.34 L 165 74.84"></line><line x1="215.5" y1="136.84" x2="44.5" y2="136.84" fill="none" stroke="#f14c4c" stroke-width="2" d="M 215.5 136.84 L 44.5 136.84"></line><line x1="214.5" y1="135.84" x2="423" y2="249.84" fill="none" stroke="#f14c4c" stroke-width="2" d="M 214.5 135.84 L 423 249.84"></line><line x1="564.5" y1="378.84" x2="564.5" y2="378.84" fill="none" stroke="#89d185" stroke-width="2" d="M 564.5 378.84 L 564.5 378.84"></line><path d="M 200.5,122.84 L 200.5,122.34 L 200.5,121.84 L 200.5,121.34 L 200,120.84 L 200,120.34 L 199.5,120.34 L 199,120.84 L 198,121.34 L 197.5,122.34 L 196,124.34 L 195.5,126.34 L 194.5,130.34 L 194.5,132.34 L 195,134.34 L 195.5,134.84" fill="none" stroke="#89d185" stroke-width="2"></path><path d="M 173.5,116.34 L 173.5,115.84 L 173,114.84 L 172.5,114.84 L 172,114.84 L 172,114.84 L 171,115.34 L 170.5,116.34 L 170,118.84 L 169.5,122.34 L 170,124.84 L 171,127.34 L 172,128.34 L 173.5,128.34 L 175,127.34 L 176,125.84 L 177,123.84 L 177.5,121.84 L 177.5,120.34 L 177.5,118.34 L 177,116.84 L 176,115.84 L 174.5,114.34 L 173.5,114.34 L 172,114.34 L 170.5,115.34 L 169.5,115.84 L 168.5,116.34 L 168.5,116.84" fill="none" stroke="#89d185" stroke-width="2"></path><path d="M 167,120.84 L 167,121.34 L 167.5,121.34 L 168.5,121.34 L 170,120.84 L 172,120.84 L 173.5,120.84 L 174.5,120.84 L 175.5,120.84" fill="none" stroke="#89d185" stroke-width="2"></path><path d="M 182,123.34 L 182,122.84 L 182,123.34 L 182,123.84 L 182,124.34 L 182,125.84 L 182,127.84 L 182,128.84 L 182,129.34 L 182.5,129.34" fill="none" stroke="#89d185" stroke-width="2"></path><path d="M 243,153.84 L 243,154.34 L 243,154.84 L 243,155.34 L 243,155.84 L 243,156.34 L 242.5,157.34 L 242,158.34 L 241,160.34 L 239.5,161.84 L 238.5,162.84 L 238,163.34" fill="none" stroke="#89d185" stroke-width="2"></path><path d="M 246.5,160.34 L 246.5,160.84 L 246,160.84 L 245.5,162.34 L 245,163.34 L 244.5,165.84 L 244.5,168.34 L 245.5,170.34 L 247,171.34 L 248.5,170.84 L 250,170.34 L 251.5,168.84 L 252,167.34 L 252.5,166.34 L 252,164.34 L 251,163.34 L 249.5,161.84 L 248,161.34 L 246.5,161.34 L 245,161.84 L 244.5,162.84 L 243.5,163.34 L 243,164.34 L 243,164.84 L 243.5,164.84 L 244,164.34 L 245,164.34 L 246,164.84 L 247.5,165.34 L 249.5,165.34" fill="none" stroke="#89d185" stroke-width="2"></path><path d="M 253.5,168.84 L 254.5,168.84 L 255.5,169.34 L 256.5,169.34 L 257,169.84 L 257.5,170.34 L 257.5,170.84 L 257,171.34 L 255.5,171.84 L 255,172.34 L 254.5,172.84 L 255.5,172.84 L 257,172.84 L 258.5,172.34 L 260,171.84 L 260.5,171.34" fill="none" stroke="#89d185" stroke-width="2"></path><line x1="215" y1="136.84" x2="214" y2="218.84" fill="none" stroke="#3794ff" stroke-width="2" d="M 215 136.84 L 214 218.84"></line><path d="M 214,228.84 L 214,228.34 L 214,228.84 L 214,229.34 L 214,230.34 L 214,231.84 L 213.5,233.84 L 213.5,236.34 L 213,238.84 L 212.5,240.84 L 212.5,241.84 L 213,241.84 L 213,240.84" fill="none" stroke="#89d185" stroke-width="2"></path><path d="M 217,236.84 L 216.5,236.34 L 217,235.34 L 217,234.84 L 216.5,234.84 L 216.5,235.34 L 216,235.34 L 215.5,235.34 L 216,234.84 L 216.5,234.84 L 217,234.84 L 218.5,234.84 L 221,235.34 L 225,235.34 L 229.5,235.34 L 235.5,235.34 L 240,235.34 L 241,235.34 L 245,235.34 L 249,235.34 L 253.5,234.84 L 257.5,234.84 L 260,234.84 L 262.5,234.84 L 264.5,234.34 L 265,233.84 L 265,234.34 L 264.5,234.34" fill="none" stroke="#89d185" stroke-width="2"></path><path d="M 261,228.34 L 260.5,228.34 L 260,228.84 L 260.5,229.34 L 261.5,229.84 L 263,230.84 L 265,232.34 L 267,233.84 L 268,234.84 L 269,235.34 L 269,235.84 L 268.5,235.84 L 267,236.84 L 265.5,237.84 L 263.5,238.84" fill="none" stroke="#89d185" stroke-width="2"></path><path d="M 543.5,264.34" fill="none" stroke="#89d185" stroke-width="2"></path><path d="M 285.5,228.84 L 286,228.84 L 286.5,228.34 L 286.5,227.84 L 286,227.84 L 286,227.34 L 285,227.34 L 283.5,227.34 L 282,227.84 L 280.5,229.34 L 279.5,230.34 L 279.5,231.34 L 279.5,233.34 L 279.5,235.34 L 279,237.84 L 278.5,241.34 L 278.5,245.34 L 279,247.84 L 279,249.34 L 279.5,249.34" fill="none" stroke="#89d185" stroke-width="2"></path><path d="M 274.5,237.84 L 274,237.84 L 273.5,237.84 L 273,237.84 L 273.5,237.84 L 274,237.84 L 275.5,237.84 L 278,237.84 L 282,237.34 L 285,236.84 L 286.5,236.84 L 286.5,236.34 L 285.5,236.34" fill="none" stroke="#89d185" stroke-width="2"></path><path d="M 362.5,226.34 L 362,226.34 L 362,225.84 L 362,226.34 L 362,226.84 L 362,227.34 L 362,228.34 L 362,230.34 L 362,233.34 L 362,236.34 L 362,239.34 L 362,241.34 L 362,241.84" fill="none" stroke="#89d185" stroke-width="2"></path><path d="M 303,236.34 L 303.5,235.84 L 304.5,235.84 L 306.5,235.34 L 310.5,234.84 L 314.5,234.34 L 319,234.34 L 322.5,234.34 L 327,234.34 L 331.5,234.34 L 336.5,233.84 L 340.5,233.84 L 343,233.84 L 346.5,234.34 L 349,234.34 L 351.5,234.84 L 353.5,234.84 L 355,234.84 L 356,235.34 L 357,234.84 L 358.5,234.84 L 359.5,234.34 L 360,234.34 L 360.5,234.84 L 361,234.84 L 361.5,234.84 L 362,234.84 L 362,234.34 L 362.5,234.34 L 363,234.34 L 363,234.84 L 363.5,234.84" fill="none" stroke="#89d185" stroke-width="2"></path><path d="M 304.5,231.34 L 304.5,230.84 L 304.5,231.34 L 304,231.34 L 304,231.84 L 303.5,232.34 L 303,233.34 L 302.5,234.34 L 302,235.84 L 301,236.84 L 300.5,237.34 L 300,237.84 L 299.5,238.34 L 300,238.34 L 300.5,238.84 L 301.5,239.34 L 303.5,240.34 L 305,241.34 L 305.5,241.84" fill="none" stroke="#89d185" stroke-width="2"></path><path d="M 657,412.34" fill="none" stroke="#89d185" stroke-width="2"></path><path d="M 268,206.34 L 268,205.84 L 267.5,205.84 L 267.5,205.34 L 267,205.34 L 266.5,205.84 L 266,205.84 L 265,207.34 L 264,209.84 L 263,212.34 L 263,214.84 L 263.5,215.84" fill="none" stroke="#89d185" stroke-width="2"></path><path d="M 242.5,196.84 L 242,196.34 L 242,195.84 L 241.5,195.84 L 241.5,196.34 L 241,197.34 L 240.5,198.84 L 240,201.34 L 240,203.84 L 240,206.34 L 240,206.84 L 240,208.34 L 241,209.84 L 242,209.84 L 243.5,208.84 L 245,207.34 L 246.5,204.84 L 247,202.34 L 247.5,199.34 L 247.5,197.84 L 247,196.84 L 246.5,195.84 L 245.5,195.84 L 244,195.84 L 242.5,196.84 L 240.5,197.84 L 240,198.84 L 239.5,198.84" fill="none" stroke="#89d185" stroke-width="2"></path><path d="M 240.5,202.84 L 240,202.84 L 239.5,202.84 L 240,203.34 L 240.5,203.34 L 243,202.84 L 245,202.84 L 246.5,203.34" fill="none" stroke="#89d185" stroke-width="2"></path><path d="M 252,205.34 L 251.5,205.34 L 251.5,205.84 L 251.5,207.34 L 251.5,208.34 L 251.5,210.34 L 251.5,211.84" fill="none" stroke="#89d185" stroke-width="2"></path><path d="M 339.5,205.84 L 339,205.84 L 338.5,205.84 L 337.5,206.84 L 336.5,207.84 L 335.5,210.34 L 334.5,212.84 L 334.5,214.84 L 334.5,215.84" fill="none" stroke="#89d185" stroke-width="2"></path><path d="M 319.5,204.34 L 318.5,204.34 L 318,204.34 L 318.5,204.84 L 318.5,205.34 L 319.5,208.34 L 319.5,210.84 L 319.5,213.84 L 319,216.34 L 319,216.84 L 318,217.34 L 318,216.84 L 317.5,216.34 L 317.5,215.84 L 318.5,214.84 L 319.5,213.34 L 320.5,211.34 L 322,209.84 L 323,207.34 L 324.5,205.84 L 325,204.34 L 325,203.34 L 324.5,202.84 L 324,202.84 L 323.5,203.84" fill="none" stroke="#89d185" stroke-width="2"></path><path d="M 579,367.34" fill="none" stroke="#89d185" stroke-width="2"></path><path d="M 206,140.84 L 206,140.34 L 206.5,139.34 L 206.5,138.84 L 206.5,139.34 L 206,139.84 L 206,140.34 L 205.5,141.84 L 205.5,145.34 L 205,148.84 L 205,154.34 L 205,158.34 L 205,161.84 L 205,163.34" fill="none" stroke="#89d185" stroke-width="2"></path><path d="M 201,160.84 L 201,160.34 L 201,160.84 L 201.5,161.84 L 202.5,162.84 L 203,164.34 L 204,165.34 L 204.5,165.34 L 204.5,165.34 L 205,164.34 L 206,162.84 L 207,161.34 L 208,160.84" fill="none" stroke="#89d185" stroke-width="2"></path><path d="M 203,171.84" fill="none" stroke="#89d185" stroke-width="2"></path><path d="M 203,171.84 L 203,172.34 L 203,173.84 L 202.5,175.34 L 202.5,178.84 L 202,182.84 L 202,185.34 L 202.5,186.34 L 203,185.84" fill="none" stroke="#89d185" stroke-width="2"></path><path d="M 203,179.84 L 203,179.34 L 203,178.84 L 204,178.84 L 205,178.34 L 206,178.34 L 206.5,178.34 L 207.5,178.84 L 207.5,179.34 L 207,180.84 L 207,182.84 L 207,184.34 L 207,185.84 L 207.5,186.34 L 207.5,186.84" fill="none" stroke="#89d185" stroke-width="2"></path><path d="M 204,194.34 L 203.5,194.84 L 203.5,195.34 L 203.5,195.84 L 203.5,196.84 L 203.5,198.34 L 203,201.84 L 203,205.34 L 202.5,209.84 L 202.5,213.84 L 202.5,216.34 L 202.5,216.84 L 203,217.84 L 202.5,218.34 L 202.5,217.84" fill="none" stroke="#89d185" stroke-width="2"></path><path d="M 199.5,199.84 L 199,200.34 L 199,199.84 L 199.5,199.34 L 200,198.34 L 201,197.34 L 202,196.34 L 203,195.84 L 203.5,195.34 L 204,195.34 L 204.5,195.34 L 205,195.84 L 205.5,196.84 L 206,197.84 L 206,198.84 L 206,199.34 L 206.5,199.34" fill="none" stroke="#89d185" stroke-width="2"></path></svg>