<svg id="svg" xmlns="http://www.w3.org/2000/svg" viewBox="91 153 400 170" height="336"><line x1="101" y1="240.84" x2="481" y2="240.34" fill="none" stroke="#59a4f9" stroke-width="2" d="M 101 240.84 L 481 240.34"></line><line x1="162.5" y1="202.34" x2="419.5" y2="284.84" fill="none" stroke="#f14c4c" stroke-width="2" d="M 162.5 202.34 L 419.5 284.84"></line><line x1="281" y1="164.84" x2="281.5" y2="311.84" fill="none" stroke="#59a4f9" stroke-width="2" d="M 281 164.84 L 281.5 311.84"></line><path d="M 274.5,171.34 L 274,170.84 L 274.5,170.34 L 275,169.84 L 275.5,168.84 L 276.5,167.84 L 277.5,166.84 L 278.5,165.84 L 279.5,164.84 L 279.5,164.34 L 279.5,163.84 L 279.5,164.34 L 280,164.84 L 280.5,164.84 L 281.5,165.34 L 282.5,166.84 L 284,168.34 L 284.5,169.34 L 285,170.34 L 285.5,170.84 L 286,170.34 L 286,169.84" fill="none" stroke="#59a4f9" stroke-width="2"></path><path d="M 276,307.84 L 276,307.34 L 276,306.84 L 275.5,306.84 L 276,306.84 L 277,307.84 L 278.5,308.34 L 280,309.34 L 281,310.34 L 281.5,310.34 L 281.5,309.84 L 281.5,309.34 L 281,309.34 L 281.5,309.34 L 282,308.84 L 283,308.34 L 284.5,307.34 L 286.5,305.34 L 289.5,303.34 L 290.5,302.34 L 291,302.34" fill="none" stroke="#59a4f9" stroke-width="2"></path><line x1="159.5" y1="199.34" x2="281" y2="200.84" fill="none" stroke="#f14c4c" stroke-width="2" d="M 159.5 199.34 L 281 200.84"></line><line x1="279.5" y1="199.84" x2="421.5" y2="286.34" fill="none" stroke="#f14c4c" stroke-width="2" d="M 279.5 199.84 L 421.5 286.34"></line><line x1="160" y1="199.34" x2="160.5" y2="242.34" fill="none" stroke="#89d185" stroke-width="2" d="M 160 199.34 L 160.5 242.34"></line><line x1="419" y1="239.34" x2="419" y2="287.34" fill="none" stroke="#89d185" stroke-width="2" d="M 419 239.34 L 419 287.34"></line><path d="M 145.5,213.84 L 145.5,213.34 L 145.5,212.84 L 145.5,213.34 L 145.5,213.84 L 145.5,216.34 L 145.5,218.34 L 145.5,220.84 L 145.5,223.34 L 145.5,224.34" fill="none" stroke="#89d185" stroke-width="2"></path><path d="M 145.5,220.84 L 145.5,220.34 L 145.5,219.84 L 146.5,219.34 L 147,218.84 L 148,218.84 L 148.5,218.84 L 149.5,218.84 L 150,218.84 L 150.5,218.84 L 150,218.84 L 150,219.84 L 150,220.84 L 150,221.84 L 150.5,222.84 L 151,223.84 L 151,224.34 L 151,224.84 L 151,223.84 L 151,222.84" fill="none" stroke="#89d185" stroke-width="2"></path><path d="M 426.5,257.84 L 427,257.34 L 426.5,256.84 L 426.5,257.34 L 426,257.84 L 426,258.34 L 426,260.34 L 426,262.34 L 426,265.34 L 426,268.34 L 426,269.84 L 426,269.34 L 426.5,269.34" fill="none" stroke="#89d185" stroke-width="2"></path><path d="M 426,264.34 L 426.5,264.34 L 427.5,263.84 L 429,263.34 L 430,262.84 L 430.5,262.84 L 431.5,262.84 L 432,262.84 L 432,263.34 L 432,263.84 L 431.5,265.84 L 432,266.84 L 432,268.34 L 432,269.34 L 432,270.34 L 432,269.34 L 432,268.84" fill="none" stroke="#89d185" stroke-width="2"></path><path d="M 436.5,254.84 L 436.5,255.34 L 436.5,255.84 L 436.5,256.34 L 437,257.34 L 437,258.34 L 436.5,259.34 L 436.5,258.84" fill="none" stroke="#89d185" stroke-width="2"></path><path d="M 216.5,245.84 L 217,245.84 L 218.5,246.34 L 219.5,246.34 L 220.5,246.84 L 221,247.34 L 221,248.34 L 221,249.34 L 220.5,251.34 L 220,253.34 L 220,254.34 L 221,254.84 L 222,254.84 L 224,254.34 L 226,253.84 L 227.5,253.84 L 228,253.34 L 228.5,253.34" fill="none" stroke="#89d185" stroke-width="2"></path><path d="M 228.5,246.84 L 228,246.84 L 227.5,246.84 L 227.5,247.34 L 228,247.84 L 228,249.34 L 228.5,251.84 L 228.5,254.84 L 228.5,256.34 L 228.5,256.84 L 229,256.34" fill="none" stroke="#89d185" stroke-width="2"></path><path d="M 288.5,276.34 L 288.5,275.84 L 289,275.84 L 289.5,275.84 L 289.5,276.34 L 289,276.84 L 288.5,277.34 L 288,277.84 L 286.5,278.84 L 285.5,279.84 L 284,280.84 L 284,281.34 L 284.5,281.34 L 285,282.34 L 286,283.34 L 286.5,284.34 L 288,284.84 L 289,285.34 L 289.5,285.84 L 289.5,285.34 L 289.5,284.84" fill="none" stroke="#89d185" stroke-width="2"></path><path d="M 290,280.34 L 289.5,280.34 L 289.5,280.84 L 290.5,280.84 L 292,281.34 L 294,280.84 L 296,280.84 L 298.5,281.34 L 300.5,281.34 L 303.5,281.84 L 304,281.84 L 306.5,282.34 L 309.5,282.34 L 312.5,281.84 L 313.5,281.84 L 316,281.34 L 318.5,280.84 L 321,280.34 L 323,280.84 L 325,281.34 L 327,281.34 L 329.5,280.84 L 331.5,280.84 L 333,281.34 L 335,281.34 L 336.5,281.34 L 337,281.34 L 337.5,281.34 L 337.5,281.84 L 337,281.84" fill="none" stroke="#89d185" stroke-width="2"></path><path d="M 342,279.84 L 342,279.34 L 342.5,278.84 L 343,279.34 L 344,279.84 L 344.5,280.84 L 345,282.34 L 345,284.34 L 345.5,285.84 L 346,286.84 L 347,286.34 L 348,285.34 L 349,284.34 L 350,282.34 L 351,280.34 L 351.5,279.34 L 351,278.34 L 350.5,278.34 L 349.5,278.34 L 349,278.34 L 349,278.84" fill="none" stroke="#89d185" stroke-width="2"></path><path d="M 355.5,283.84 L 355.5,283.34 L 356,283.34 L 357.5,283.34 L 359,283.34 L 361,283.34 L 364,283.34 L 366.5,282.84 L 369.5,282.84 L 372.5,282.84 L 375.5,282.84 L 378.5,282.84 L 380.5,283.34 L 383,282.84 L 386,282.84 L 388,282.34 L 390,282.34 L 391.5,282.34 L 394,282.34 L 395.5,282.34 L 397.5,282.34 L 399,282.34 L 401,282.34 L 402,282.34 L 403.5,282.34 L 404.5,282.34 L 405.5,282.34 L 406.5,282.34 L 407.5,282.34 L 408.5,282.34 L 409,282.34 L 409.5,282.34 L 410,282.34 L 410,281.84 L 410,282.34" fill="none" stroke="#89d185" stroke-width="2"></path><path d="M 406.5,278.84 L 406,278.84 L 405.5,279.34 L 405,279.34 L 405.5,279.84 L 406.5,280.34 L 408,280.84 L 409,281.34 L 410,282.34 L 410.5,283.34 L 411,284.34 L 411,284.84 L 411,285.34 L 410.5,285.84 L 410,286.34 L 409.5,286.84 L 408.5,287.84 L 407,288.34" fill="none" stroke="#89d185" stroke-width="2"></path><path d="M 165,248.84 L 165,249.34 L 165,249.84 L 164.5,249.84 L 164.5,250.34 L 163.5,250.84 L 163,251.34 L 162,252.34 L 161.5,252.84 L 161.5,252.34 L 161.5,252.84 L 161.5,253.34 L 161.5,253.84 L 161.5,254.34 L 162.5,254.84 L 164,255.34 L 165.5,256.34 L 167,257.34 L 168,257.34" fill="none" stroke="#89d185" stroke-width="2"></path><path d="M 166.5,254.34 L 166,254.34 L 166.5,254.34 L 167,254.34 L 167.5,254.34 L 169,253.84 L 170.5,253.84 L 172.5,254.34 L 175,254.34 L 178,254.34 L 182,254.34 L 185,254.34 L 187.5,254.34 L 188,254.34 L 190,254.34 L 192.5,254.34 L 195,253.84 L 196.5,253.34 L 198,253.84 L 199,253.84 L 201,253.84 L 202.5,253.84 L 204,253.84 L 204.5,253.84 L 205.5,253.84 L 206.5,253.84 L 207,253.84" fill="none" stroke="#89d185" stroke-width="2"></path><path d="M 236.5,250.84 L 236,250.84 L 235.5,250.84 L 235,251.34 L 235,250.84 L 235.5,250.84 L 236,250.84 L 237,250.34 L 238,250.34 L 239,250.34 L 239.5,250.34 L 240,250.34 L 241.5,250.34 L 242.5,250.34 L 243.5,250.34 L 245,250.34 L 246,249.84 L 247,249.84 L 248,249.84 L 249,249.84 L 250,249.84 L 251,249.84 L 252.5,249.84 L 253.5,249.84 L 254,249.84 L 254.5,249.84 L 255.5,249.84 L 257,249.34 L 257.5,249.84 L 258.5,249.84 L 259.5,249.84 L 260.5,249.84 L 261,249.84 L 262,250.34 L 262.5,250.34 L 263.5,250.34 L 265,249.84 L 266.5,249.84 L 267.5,249.84 L 268.5,249.84 L 269.5,250.34 L 270.5,250.34 L 271,250.34 L 272,250.34 L 272.5,250.34 L 273.5,250.34 L 275,250.34 L 276,250.34 L 276.5,250.34 L 277,250.84 L 278,250.84 L 278.5,250.84 L 278.5,250.34 L 278,250.84 L 277.5,250.84" fill="none" stroke="#89d185" stroke-width="2"></path><path d="M 275,246.34 L 275.5,245.84 L 276,246.34 L 276.5,246.84 L 277,246.84 L 277.5,247.34 L 278,248.34 L 278.5,249.34 L 279,249.84 L 279.5,249.84 L 279.5,250.84 L 280,251.84 L 280,252.84 L 279.5,252.84 L 279.5,253.34 L 278.5,253.34 L 277.5,254.34 L 275,255.84 L 274,256.34" fill="none" stroke="#89d185" stroke-width="2"></path><path d="M 288.5,229.34 L 289,229.34 L 288.5,229.34 L 287.5,230.34 L 286,231.34 L 285,231.84 L 284,232.84 L 283.5,233.34 L 284.5,233.34 L 285,233.34 L 286,234.34 L 287,235.84 L 287.5,236.34 L 288,236.34 L 288.5,236.84" fill="none" stroke="#89d185" stroke-width="2"></path><path d="M 288.5,233.34 L 289,233.34 L 289.5,233.34 L 290.5,233.34 L 292,233.34 L 293,233.34 L 294.5,233.34 L 297,232.84 L 298.5,232.84 L 299.5,233.34 L 300,233.34 L 300.5,233.34 L 300,233.34" fill="none" stroke="#89d185" stroke-width="2"></path><path d="M 312.5,226.34 L 312,226.34 L 311.5,225.84 L 311,225.84 L 310,225.84 L 309.5,226.34 L 309,225.84 L 308.5,225.84 L 308.5,226.34 L 308.5,226.84 L 308,227.34 L 308,228.34 L 308,229.84 L 308,231.84 L 308.5,234.34 L 308.5,237.34 L 309,239.34 L 309,240.34 L 309,241.34" fill="none" stroke="#89d185" stroke-width="2"></path><path d="M 305,231.84 L 306,231.84 L 307.5,231.34 L 309.5,231.34 L 311.5,230.84 L 312.5,230.84 L 313,230.84" fill="none" stroke="#89d185" stroke-width="2"></path><path d="M 317.5,232.34 L 318,232.34 L 318.5,232.34 L 319,232.34 L 320,232.84 L 322,232.34 L 324,231.84 L 326,231.84 L 328,231.84 L 329.5,232.34 L 331,232.34 L 333,232.34 L 335,232.84 L 337.5,232.34 L 339.5,232.34 L 341,232.34 L 342,232.34 L 342.5,232.84 L 343,232.84 L 344,232.34 L 344,232.84 L 343.5,232.84 L 343,233.34" fill="none" stroke="#89d185" stroke-width="2"></path><path d="M 340.5,228.34 L 340.5,227.84 L 341,227.84 L 341.5,227.84 L 341.5,228.34 L 342,228.34 L 342,228.84 L 342.5,229.84 L 343,230.34 L 344,231.34 L 345,232.34 L 345.5,232.84 L 345.5,233.34 L 345,233.84 L 345,234.34 L 344.5,234.34 L 344.5,234.84 L 344,234.84 L 343.5,235.34 L 342.5,236.84 L 341.5,237.84" fill="none" stroke="#89d185" stroke-width="2"></path><path d="M 346.5,228.34 L 346.5,228.84 L 346,228.84 L 346,229.34 L 346,230.34 L 346.5,231.84 L 346.5,233.34 L 346.5,235.34 L 347,236.84 L 347,238.84 L 347,239.84 L 347.5,239.84 L 347.5,239.34" fill="none" stroke="#89d185" stroke-width="2"></path><path d="M 417,228.34 L 417.5,227.84 L 418,227.84 L 418,227.34 L 418,227.84 L 418,228.34 L 418,228.84 L 418,229.34 L 418,230.34 L 418,232.34 L 418,235.34 L 418,237.34 L 418,238.34 L 418.5,238.34 L 418.5,237.84" fill="none" stroke="#89d185" stroke-width="2"></path><path d="M 354.5,230.84 L 354.5,230.34 L 354.5,230.84 L 354,230.84 L 353.5,231.34 L 353,231.84 L 352,232.84 L 351,233.84 L 350.5,234.34 L 350,234.34 L 349.5,234.34 L 350,234.34 L 351,235.34 L 351.5,235.84 L 352.5,237.34 L 353.5,238.34 L 354,238.34" fill="none" stroke="#89d185" stroke-width="2"></path><path d="M 353.5,235.84 L 353.5,235.34 L 354,235.34 L 354.5,234.84 L 354.5,234.34 L 355,234.84 L 355.5,234.84 L 356,234.84 L 357,234.34 L 358,234.34 L 358.5,234.84 L 360,234.84 L 361.5,234.84 L 363,235.34 L 364,235.34 L 366,235.34 L 367,235.34 L 367,235.84" fill="none" stroke="#89d185" stroke-width="2"></path><path d="M 372,231.34 L 373,231.84 L 373.5,232.34 L 374,232.84 L 374.5,233.84 L 375,234.84 L 375,235.84 L 374.5,236.84 L 374.5,237.34 L 375,237.34 L 375.5,237.34 L 376,236.84 L 377,235.84 L 378,234.84 L 378,233.84 L 378,232.84 L 378,232.34 L 378,231.84 L 377.5,231.84 L 377.5,231.34 L 378,231.34" fill="none" stroke="#89d185" stroke-width="2"></path><path d="M 382,234.84 L 381.5,234.84 L 382,234.84 L 382,235.34 L 382.5,235.34 L 383.5,234.84 L 384.5,234.34 L 385.5,234.34 L 386,234.34" fill="none" stroke="#89d185" stroke-width="2"></path><path d="M 394,227.84 L 394,227.34 L 394,226.84 L 394,226.34 L 393.5,226.34 L 393.5,225.84 L 393,225.84 L 392.5,225.34 L 392,225.34 L 391.5,225.34 L 391,225.84 L 390.5,226.34 L 390.5,226.84 L 390,227.84 L 390,229.34 L 390,232.34 L 390,235.34 L 390.5,238.34 L 390.5,240.84 L 391,242.84 L 391,243.34" fill="none" stroke="#89d185" stroke-width="2"></path><path d="M 388,231.34 L 387.5,231.34 L 387,231.34 L 387.5,231.34 L 388,231.34 L 390,230.84 L 392,230.84 L 395,231.34" fill="none" stroke="#89d185" stroke-width="2"></path><path d="M 398,232.84 L 398.5,232.84 L 398.5,233.34 L 399,233.34 L 400,233.34 L 401,233.34 L 403,233.34 L 404.5,233.34 L 407,232.84 L 409,232.84 L 410.5,232.84 L 411,232.84 L 411.5,232.84 L 412,232.84 L 412.5,232.84 L 413,232.34 L 413.5,232.34 L 413.5,231.84" fill="none" stroke="#89d185" stroke-width="2"></path><path d="M 411,228.34 L 411,228.84 L 411,229.34 L 411.5,229.84 L 412,230.34 L 412.5,230.84 L 413.5,231.34 L 415,232.34 L 415.5,232.84 L 416,233.34 L 415.5,233.34 L 415,233.34 L 415,233.84 L 414,234.84 L 413,235.84 L 413,236.34" fill="none" stroke="#89d185" stroke-width="2"></path><g id="selects"></g></svg>