<svg id="svg" xmlns="http://www.w3.org/2000/svg" viewBox="0 90.83999633789062 650 330.5000305175781" height="490.5000305175781"><line x1="80" y1="279.34" x2="581.5" y2="279.84" fill="none" stroke="#3794ff" stroke-width="2" d="M 80 279.34 L 581.5 279.84"></line><line x1="674" y1="183.34" x2="674" y2="183.34" fill="none" stroke="#3794ff" stroke-width="2" d="M 674 183.34 L 674 183.34"></line><circle cx="320.5" cy="278.34" fill="none" stroke="#3794ff" stroke-width="2" r="115.6027681329474" d="M 204.8972318670526 278.34 a 115.6027681329474 115.6027681329474 0 1 0 231.2055362658948 0a 115.6027681329474 115.6027681329474 0 1 0 -231.2055362658948 0 Z"></circle><line x1="208" y1="160.84" x2="321" y2="281.34" fill="none" stroke="#3794ff" stroke-width="2" d="M 208 160.84 L 321 281.34"></line><line x1="382.5" y1="483.34" x2="382.5" y2="483.34" fill="none" stroke="#3794ff" stroke-width="2" d="M 382.5 483.34 L 382.5 483.34"></line><path d="M 308.5,373.34" fill="none" stroke="#3794ff" stroke-width="2"></path><path d="M 452.5,165.84" fill="none" stroke="#3794ff" stroke-width="2"></path><path d="M 410.5,361.34" fill="none" stroke="#3794ff" stroke-width="2"></path><path d="M 513.5,571.34" fill="none" stroke="#3794ff" stroke-width="2"></path><path d="M 445,126.34" fill="none" stroke="#3794ff" stroke-width="2"></path><path d="M 408.5,100.84" fill="none" stroke="#3794ff" stroke-width="2"></path><line x1="240" y1="193.84" x2="23.5" y2="311.84" fill="none" stroke="#f14c4c" stroke-width="2" d="M 240 193.84 L 23.5 311.84"></line><line x1="240" y1="192.84" x2="620" y2="311.34" fill="none" stroke="#f14c4c" stroke-width="2" d="M 240 192.84 L 620 311.34"></line><line x1="241" y1="192.34" x2="241" y2="280.34" fill="none" stroke="#3794ff" stroke-width="2" d="M 241 192.34 L 241 280.34"></line><path d="M 81.5,290.84 L 81.5,290.34 L 82,290.34 L 82,289.84 L 82,291.34 L 82,292.84 L 82,295.84 L 82,298.34 L 82,298.84 L 81.5,300.34 L 81.5,301.34 L 81.5,300.84 L 81,300.84" fill="none" stroke="#89d185" stroke-width="2"></path><path d="M 157.5,296.34 L 157,296.34 L 157,295.34 L 157.5,294.34 L 158,293.84 L 159,293.34 L 160,293.34 L 160.5,294.84 L 160.5,296.84 L 160,299.84 L 159.5,301.84 L 160,302.34 L 161,302.34 L 163,301.84 L 165.5,300.84 L 167.5,300.34 L 169,299.34" fill="none" stroke="#89d185" stroke-width="2"></path><path d="M 171.5,290.34 L 171,290.34 L 170.5,290.34 L 170,290.84 L 169.5,291.84 L 169.5,293.34 L 170,296.84 L 170,300.34 L 170,303.84 L 170.5,304.34" fill="none" stroke="#89d185" stroke-width="2"></path><path d="M 87,295.84 L 86.5,295.84 L 87,295.84 L 87,296.34 L 88,296.34 L 89.5,296.34 L 92,296.34 L 95.5,296.34 L 100,295.84 L 105.5,295.84 L 110.5,296.34 L 115.5,296.34 L 119.5,296.34 L 124,297.34 L 127.5,297.34 L 132,297.34 L 135,297.34 L 138,296.84 L 140.5,296.34 L 142.5,295.84 L 144,295.34 L 144.5,295.34 L 145,295.84 L 145,295.34 L 144.5,294.84" fill="none" stroke="#89d185" stroke-width="2"></path><path d="M 140.5,289.84 L 140,289.84 L 140,290.34 L 140,290.84 L 140.5,290.84 L 142.5,292.34 L 144,293.34 L 145.5,295.34 L 146.5,296.34 L 147,297.34 L 147,297.84 L 146,297.84 L 145,298.34 L 144,298.34 L 141.5,299.84 L 140,301.34 L 140,301.84" fill="none" stroke="#89d185" stroke-width="2"></path><path d="M 241.5,287.84 L 241.5,287.34 L 241.5,286.84 L 241.5,286.34 L 241.5,286.84 L 241.5,287.34 L 241,288.84 L 241,291.84 L 241,296.84 L 241,299.34 L 241,300.34 L 241.5,299.84" fill="none" stroke="#89d185" stroke-width="2"></path><path d="M 185.5,295.84 L 186.5,295.34 L 188,295.34 L 190.5,295.34 L 194.5,295.84 L 198.5,296.34 L 204,295.84 L 210.5,295.84 L 216,295.84 L 221.5,295.84 L 226,295.34 L 230.5,294.84 L 233.5,295.34 L 236,295.34 L 237,295.34 L 238,294.84 L 238.5,294.84 L 238.5,293.84" fill="none" stroke="#89d185" stroke-width="2"></path><path d="M 190,290.84 L 189.5,290.84 L 188.5,291.34 L 187,292.84 L 185.5,293.84 L 184,295.34 L 183.5,296.34 L 183,296.84 L 183.5,296.84 L 184,296.84 L 185,297.34 L 187,298.84 L 188.5,300.34 L 190,301.34 L 190.5,301.84" fill="none" stroke="#89d185" stroke-width="2"></path><path d="M 336.5,333.34" fill="none" stroke="#89d185" stroke-width="2"></path><path d="M 520.5,286.34 L 520.5,285.84 L 520.5,285.34 L 520.5,284.84 L 520.5,284.34 L 520,284.34 L 520,283.84 L 520.5,283.84 L 520,284.84 L 520,285.34 L 520,286.84 L 520,289.84 L 520,293.34 L 520.5,295.84 L 520.5,296.84" fill="none" stroke="#89d185" stroke-width="2"></path><path d="M 249,293.34 L 248.5,293.34 L 249,293.84 L 250,294.34 L 253,293.84 L 255,293.84 L 257.5,293.84 L 260,294.84 L 263,294.84 L 266,294.84 L 270,294.84 L 273.5,294.34 L 277.5,293.84 L 281.5,293.34 L 285,292.84 L 290,292.84 L 294,293.34 L 298.5,293.34 L 301,293.34 L 304.5,293.84 L 307.5,294.34 L 311.5,293.84 L 315,293.34 L 317.5,292.84 L 321,293.34 L 323.5,293.34 L 326.5,292.84 L 329.5,292.84 L 333,292.84 L 336.5,292.84 L 340.5,293.34 L 344,293.34 L 348.5,293.34 L 352,293.84 L 355.5,294.34 L 358.5,294.84 L 361,295.34 L 363,295.84 L 364,295.84 L 365,295.34 L 365.5,295.34 L 366,295.34" fill="none" stroke="#89d185" stroke-width="2"></path><path d="M 364,287.84" fill="none" stroke="#89d185" stroke-width="2"></path><path d="M 363.5,287.84 L 363.5,287.34 L 363.5,286.84 L 363.5,287.84 L 364.5,288.84 L 366.5,289.84 L 368.5,290.84 L 369.5,291.84 L 369.5,292.84 L 369.5,293.34 L 369,294.34 L 368,295.84 L 366,297.34 L 364,298.34 L 363,299.34 L 361.5,300.34 L 361.5,300.34" fill="none" stroke="#89d185" stroke-width="2"></path><path d="M 377,294.34 L 377,293.84 L 377,294.34 L 377.5,294.34 L 378,294.84 L 379,295.34 L 380,297.84 L 380.5,300.84 L 381,302.34 L 382,303.34 L 383.5,302.84 L 384.5,300.84 L 386,297.34 L 386,294.84 L 386,293.34 L 385,292.84 L 384.5,292.34 L 384,292.34 L 384,292.84" fill="none" stroke="#89d185" stroke-width="2"></path><path d="M 406,294.34 L 405,294.34 L 404.5,293.84 L 404,292.84 L 404,292.34 L 404.5,291.84 L 405.5,291.84 L 409.5,290.84 L 412,290.84 L 418,291.34 L 424,292.34 L 431.5,292.84 L 438,293.34 L 447,293.34 L 455.5,293.34 L 462.5,292.84 L 469.5,292.84 L 476,291.84 L 481,291.84 L 487,291.34 L 491,291.84 L 495,291.84 L 498,291.84 L 501,291.84 L 505,291.84 L 508,292.34 L 510,292.84 L 512.5,292.84 L 514.5,292.34 L 516.5,292.84 L 518,292.34 L 518.5,292.34 L 519,292.34 L 519.5,292.34 L 519.5,291.84 L 519.5,291.34 L 519,291.34" fill="none" stroke="#89d185" stroke-width="2"></path><path d="M 409,286.34 L 408.5,286.34 L 408.5,286.84 L 408,287.34 L 408,287.84 L 407,288.84 L 406,289.84 L 405.5,289.84 L 404.5,290.84 L 403.5,291.34 L 402.5,291.84 L 402,292.34 L 401.5,292.34 L 401.5,292.84 L 402,293.34 L 402,293.84 L 403.5,294.84 L 405,295.34 L 406.5,296.34 L 407.5,296.84 L 408.5,298.34 L 409,299.34 L 409.5,299.34" fill="none" stroke="#89d185" stroke-width="2"></path><path d="M 673,293.84" fill="none" stroke="#89d185" stroke-width="2"></path><path d="M 536,168.34" fill="none" stroke="#89d185" stroke-width="2"></path><path d="M 682,297.34" fill="none" stroke="#89d185" stroke-width="2"></path><path d="M 230.5,193.84 L 230.5,194.34 L 230,194.34 L 230.5,194.34 L 231,194.34 L 232,194.34 L 233.5,193.84 L 235,194.34 L 236.5,193.84 L 237.5,193.84 L 238.5,194.34 L 239,194.34 L 239,194.84 L 239.5,194.84 L 240,194.84" fill="none" stroke="#89d185" stroke-width="2"></path><path d="M 235.5,197.34 L 235.5,197.84 L 235.5,198.34 L 235.5,198.84 L 235.5,200.84 L 235.5,202.84 L 235,205.84 L 235,209.84 L 235,213.34 L 235,216.34 L 235,218.34 L 235,218.84 L 235,219.84 L 235,220.84 L 234.5,221.34" fill="none" stroke="#89d185" stroke-width="2"></path><path d="M 232.5,216.84 L 232,216.84 L 232.5,217.34 L 232.5,217.84 L 233,219.34 L 233.5,220.34 L 234.5,221.84 L 235,222.84 L 235,222.34 L 235.5,221.34 L 236.5,219.34 L 238,217.84 L 239,216.84" fill="none" stroke="#89d185" stroke-width="2"></path><path d="M 229.5,229.34 L 229.5,228.84 L 229.5,227.84 L 229.5,229.34 L 229.5,232.34 L 230,234.84 L 229.5,238.84 L 229.5,240.84 L 229.5,241.34" fill="none" stroke="#89d185" stroke-width="2"></path><path d="M 230.5,236.84 L 230.5,236.34 L 230.5,235.84 L 231,235.34 L 232,234.84 L 233.5,234.34 L 234,234.34 L 235,234.34 L 235,234.84 L 235,235.34 L 235,236.84 L 235,237.84 L 235,239.34 L 236,240.34 L 237,240.84 L 238,240.34 L 239,239.34 L 239,238.84" fill="none" stroke="#89d185" stroke-width="2"></path><path d="M 234.5,247.34" fill="none" stroke="#89d185" stroke-width="2"></path><path d="M 234.5,247.34 L 234,247.84 L 234,248.34 L 234,249.34 L 234,250.84 L 234,253.34 L 234,256.34 L 234,259.34 L 234,263.34 L 234,265.84 L 234,269.34 L 234,271.84 L 234.5,273.84 L 234.5,274.34 L 234.5,275.34 L 234,276.84 L 233.5,277.84 L 233.5,278.34 L 233.5,277.84" fill="none" stroke="#89d185" stroke-width="2"></path><path d="M 230.5,255.34 L 230,255.34 L 230,254.84 L 230,254.34 L 230,253.84 L 230.5,253.34 L 231.5,252.34 L 232.5,250.84 L 233,250.34 L 234,250.34 L 234.5,250.84 L 235,251.34 L 236,251.84 L 236.5,252.84 L 237,254.34 L 238,255.34" fill="none" stroke="#89d185" stroke-width="2"></path><path d="M 108.5,268.34 L 108,268.34 L 108,267.84 L 108.5,267.84 L 108.5,268.34 L 109,268.84 L 109.5,269.84 L 110,271.34 L 111,273.84 L 111.5,276.84 L 111.5,278.84 L 110.5,280.34 L 110,279.84" fill="none" stroke="#89d185" stroke-width="2"></path><path d="M 132,263.34 L 132,263.84 L 132.5,264.34 L 132,265.34 L 131,268.34 L 130.5,269.84 L 128.5,272.34 L 127,273.34 L 125,274.34 L 124,274.34 L 123,272.84 L 122.5,271.34 L 123,269.84 L 123.5,268.34 L 124,267.84 L 125.5,267.34 L 126.5,267.84 L 128.5,268.84 L 130.5,269.84 L 132.5,271.84 L 133.5,273.34 L 134.5,273.84 L 135,273.84 L 135.5,273.34 L 135.5,272.84" fill="none" stroke="#89d185" stroke-width="2"></path><path d="M 304,266.34 L 304,265.84 L 304,265.34 L 304,264.84 L 303.5,264.34 L 303,264.34 L 302,265.34 L 300.5,266.84 L 299,269.84 L 297.5,272.84 L 297.5,273.84 L 297,276.84 L 297.5,278.84 L 298,279.34" fill="none" stroke="#89d185" stroke-width="2"></path><path d="M 283.5,277.84 L 283.5,277.34 L 283.5,276.84 L 283.5,275.84 L 283,273.84 L 282.5,270.84 L 282,267.34 L 282,264.34 L 282,261.84 L 282.5,260.34 L 283.5,259.34 L 284.5,259.84 L 286,260.34 L 287.5,261.34 L 288.5,262.84 L 289,263.84 L 288.5,264.84 L 287.5,265.84 L 286,265.84 L 284.5,265.84 L 284,265.84 L 284,265.34 L 284.5,265.34 L 285.5,265.84 L 287,265.84 L 288.5,266.84 L 290,267.84 L 290,269.34 L 289.5,270.34 L 288,271.34 L 286,272.34 L 284,272.84 L 283.5,272.34 L 284,271.84" fill="none" stroke="#89d185" stroke-width="2"></path><path d="M 474.5,268.34 L 474.5,267.84 L 474.5,267.34 L 474.5,266.84 L 475,266.34 L 474.5,266.34 L 474.5,266.84 L 473.5,267.34 L 473,268.84 L 472,271.34 L 472,274.34 L 472,277.34 L 472.5,278.84" fill="none" stroke="#89d185" stroke-width="2"></path><path d="M 454,270.84 L 454,270.34 L 454,269.34 L 454.5,269.34 L 455,270.34 L 456,271.84 L 457,274.84 L 457.5,277.34 L 457.5,280.34 L 457,282.84 L 456.5,283.34 L 456,283.34 L 456,282.34 L 456.5,280.84 L 457.5,278.34 L 458,275.84 L 459,272.84 L 460,270.34 L 461,267.34 L 461,265.84 L 461,264.84 L 461.5,264.34" fill="none" stroke="#89d185" stroke-width="2"></path><path d="M 618,277.34" fill="none" stroke="#89d185" stroke-width="2"></path><path d="M 418,144.34" fill="none" stroke="#89d185" stroke-width="2"></path><path d="M 227,183.84 L 227,183.34 L 226.5,182.84 L 226.5,182.34 L 225.5,182.34 L 224.5,183.34 L 223.5,185.84 L 221.5,190.34 L 220,195.34 L 219.5,200.34 L 220.5,203.34" fill="none" stroke="#89d185" stroke-width="2"></path><path d="M 202.5,179.84 L 202,179.84 L 201.5,180.34 L 201.5,180.84 L 201,182.34 L 201,184.84 L 201.5,187.84 L 202,190.34 L 203,192.84 L 204.5,192.84 L 206,191.34 L 208,188.84 L 209,185.84 L 209,183.34 L 208.5,181.84 L 206.5,181.34 L 205.5,181.34 L 204.5,181.84 L 203,181.84 L 202.5,182.84 L 202.5,183.34" fill="none" stroke="#89d185" stroke-width="2"></path><path d="M 203,187.84 L 202.5,187.84 L 202.5,187.34 L 202,187.34 L 202.5,186.84 L 203,186.84 L 204,186.84 L 205.5,186.34 L 208,186.34" fill="none" stroke="#89d185" stroke-width="2"></path><path d="M 211.5,186.34 L 211.5,185.84 L 211.5,186.34 L 211,186.84 L 211.5,188.84 L 211.5,191.34 L 211.5,192.84 L 211.5,193.34" fill="none" stroke="#89d185" stroke-width="2"></path><path d="M 262,200.84 L 262,201.34 L 262,201.84 L 262,202.34 L 262,202.84 L 262,203.34 L 261,204.84 L 260,206.34 L 257.5,208.84 L 254.5,210.34 L 253.5,209.84" fill="none" stroke="#89d185" stroke-width="2"></path><path d="M 267,208.34 L 266.5,207.34 L 266.5,206.84 L 266,206.34 L 265.5,206.34 L 265,206.34 L 264.5,208.34 L 264,209.84 L 264,212.84 L 264.5,215.84 L 265.5,217.34 L 267,217.84 L 268.5,216.84 L 270.5,214.84 L 271.5,212.34 L 271.5,210.34 L 270.5,209.34 L 268.5,208.84 L 266.5,208.84 L 265,208.84 L 264,209.34" fill="none" stroke="#89d185" stroke-width="2"></path><path d="M 265,212.84 L 265,212.34 L 265.5,212.34 L 266,212.34 L 268,211.84 L 269,211.84" fill="none" stroke="#89d185" stroke-width="2"></path><path d="M 276,213.84 L 275.5,213.84 L 275.5,213.34 L 275.5,212.84 L 276.5,213.34 L 277,213.84 L 278,214.34 L 278.5,215.34 L 278,216.34 L 277,217.34 L 275.5,218.34 L 274.5,219.34 L 275,219.34 L 275.5,219.34 L 276.5,218.84 L 278.5,218.84 L 280.5,218.34 L 282.5,218.34" fill="none" stroke="#89d185" stroke-width="2"></path></svg>